<svg viewBox="0 0 1000 1000" xmlns="http://www.w3.org/2000/svg"><rect fill="#55ace0" height="1000" rx="150.29" stroke="#231f20" stroke-miterlimit="10" width="1000"/><path d="m532.91 193.69c-9.2-7.8-20.86-12.07-32.91-12.07s-23.72 4.28-32.91 12.07l-254.49 215.91c-11.41 9.67-17.98 23.87-17.98 38.82v319.07c0 13.5 5.36 26.45 14.91 35.99 9.55 9.55 22.49 14.91 35.99 14.91h161.18c6.75 0 13.22-2.68 18-7.45 4.77-4.77 7.45-11.25 7.45-18v-212.08h135.73v212.08c0 14.05 11.4 25.45 25.45 25.45h161.18c13.5 0 26.45-5.36 35.99-14.91 9.55-9.55 14.91-22.49 14.91-35.99v-319.07c0-14.95-6.58-29.15-17.98-38.82l-254.49-215.91z" fill="#ade0ed"/></svg>