<?xml version="1.0" standalone="no"?>
<!DOCTYPE svg PUBLIC "-//W3C//DTD SVG 20010904//EN"
 "http://www.w3.org/TR/2001/REC-SVG-20010904/DTD/svg10.dtd">
<svg version="1.0" xmlns="http://www.w3.org/2000/svg"
 width="1000.000000pt" height="1000.000000pt" viewBox="0 0 1000.000000 1000.000000"
 preserveAspectRatio="xMidYMid meet">
<metadata>
Created by potrace 1.14, written by Peter Selinger 2001-2017
</metadata>
<g transform="translate(0.000000,1000.000000) scale(0.100000,-0.100000)"
fill="#000000" stroke="none">
<path d="M4923 8179 c-107 -17 -186 -57 -294 -149 -29 -25 -162 -137 -294
-250 -133 -113 -322 -272 -420 -355 -98 -82 -183 -154 -189 -160 -25 -23 -146
-126 -211 -181 -38 -32 -158 -133 -265 -224 -107 -91 -253 -215 -325 -275 -71
-60 -132 -112 -135 -115 -3 -3 -122 -104 -265 -225 -143 -121 -262 -222 -265
-225 -3 -3 -42 -36 -86 -73 -139 -116 -203 -217 -222 -347 -3 -25 -6 -792 -6
-1705 l1 -1660 22 -65 c29 -82 59 -134 113 -191 65 -68 161 -129 233 -145 76
-18 212 -20 965 -19 829 2 846 2 890 22 44 20 103 76 127 119 6 12 15 39 19
60 4 22 7 519 7 1107 l0 1067 677 0 677 0 0 -1078 c0 -1030 1 -1081 19 -1131
22 -61 69 -112 133 -143 l46 -23 875 1 c864 0 878 1 970 29 57 18 142 74 193
129 73 78 119 169 134 266 4 25 7 790 7 1700 1 1797 4 1681 -55 1806 -37 78
-95 138 -288 300 -85 71 -175 147 -201 169 -25 22 -64 55 -86 73 -89 75 -135
114 -245 208 -63 55 -137 117 -164 139 -59 49 -273 230 -300 254 -19 17 -100
85 -225 191 -29 25 -58 50 -64 55 -6 6 -83 71 -171 145 -88 74 -162 137 -165
140 -3 3 -34 30 -70 60 -36 30 -67 57 -70 60 -3 3 -30 25 -60 50 -30 25 -68
57 -85 71 -29 25 -134 114 -245 208 -29 25 -58 50 -64 55 -106 100 -269 217
-321 231 -16 5 -32 9 -35 10 -68 19 -151 24 -217 14z"/>
</g>
</svg>
